<svg width="80" height="40" viewBox="0 0 80 40" fill="none" xmlns="http://www.w3.org/2000/svg">
<path d="M31.1699 15.4401L39.9999 20.55L48.7699 15.47" stroke="#B7B0B0" stroke-width="1.5" stroke-linecap="round" stroke-linejoin="round"/>
<path d="M40 29.61V20.54" stroke="#B7B0B0" stroke-width="1.5" stroke-linecap="round" stroke-linejoin="round"/>
<path d="M30.3901 17.1701C30.3901 15.7901 31.3801 14.1101 32.5901 13.4401L37.9301 10.4701C39.0701 9.84006 40.9401 9.84006 42.0801 10.4701L47.4201 13.4401C48.6301 14.1101 49.6201 15.7901 49.6201 17.1701V22.8201C49.6201 24.2001 48.6301 25.8801 47.4201 26.5501L42.0801 29.5201C40.9401 30.1501 39.0701 30.1501 37.9301 29.5201L32.5901 26.5501C31.3801 25.8801 30.3901 24.2001 30.3901 22.8201V22.0001" stroke="#B7B0B0" stroke-width="1.5" stroke-linecap="round" stroke-linejoin="round"/>
<path d="M44.9998 21.24V17.58L38.9297 14.07L37.8798 13.47L35.5098 12.1" stroke="#B7B0B0" stroke-width="1.5" stroke-linecap="round" stroke-linejoin="round"/>
</svg>
